<?xml version="1.0" encoding="UTF-8" standalone="no"?>
<!-- Created with Inkscape (http://www.inkscape.org/) -->

<svg
   xmlns:dc="http://purl.org/dc/elements/1.1/"
   xmlns:cc="http://creativecommons.org/ns#"
   xmlns:rdf="http://www.w3.org/1999/02/22-rdf-syntax-ns#"
   xmlns:svg="http://www.w3.org/2000/svg"
   xmlns="http://www.w3.org/2000/svg"
   xmlns:sodipodi="http://sodipodi.sourceforge.net/DTD/sodipodi-0.dtd"
   xmlns:inkscape="http://www.inkscape.org/namespaces/inkscape"
   version="1.1"
   id="svg2"
   xml:space="preserve"
   width="700"
   height="700"
   viewBox="0 0 700 700"
   sodipodi:docname="senac-logo.svg"
   inkscape:version="0.92.4 (5da689c313, 2019-01-14)"
   inkscape:export-filename="G:\Users\suitedoalex\sites\senac-logo-0.png"
   inkscape:export-xdpi="561.73712"
   inkscape:export-ydpi="561.73712"><metadata
     id="metadata8"><rdf:RDF><cc:Work
         rdf:about=""><dc:format>image/svg+xml</dc:format><dc:type
           rdf:resource="http://purl.org/dc/dcmitype/StillImage" /><dc:title></dc:title></cc:Work></rdf:RDF></metadata><defs
     id="defs6"><clipPath
       clipPathUnits="userSpaceOnUse"
       id="clipPath20"><path
         d="M 0,595.276 H 595.276 V 0 H 0 Z"
         id="path18"
         inkscape:connector-curvature="0" /></clipPath><clipPath
       clipPathUnits="userSpaceOnUse"
       id="clipPath32"><path
         d="M 108.425,202.015 H 478.347 V 418.819 H 108.425 Z"
         id="path30"
         inkscape:connector-curvature="0" /></clipPath></defs><sodipodi:namedview
     pagecolor="#ffffff"
     bordercolor="#666666"
     borderopacity="1"
     objecttolerance="10"
     gridtolerance="10"
     guidetolerance="10"
     inkscape:pageopacity="0"
     inkscape:pageshadow="2"
     inkscape:window-width="1600"
     inkscape:window-height="837"
     id="namedview4"
     showgrid="false"
     inkscape:zoom="0.84100751"
     inkscape:cx="253.44267"
     inkscape:cy="336.82364"
     inkscape:window-x="-8"
     inkscape:window-y="-8"
     inkscape:window-maximized="1"
     inkscape:current-layer="g10" /><g
     id="g10"
     inkscape:groupmode="layer"
     inkscape:label="senac-logo"
     transform="matrix(1.3333333,0,0,-1.3333333,0,699.99998)"><g
       id="g26"
       transform="translate(-30.885943,-47.917008)"
       inkscape:export-filename="G:\Users\suitedoalex\sites\senac-logo-4.png"
       inkscape:export-xdpi="77.710739"
       inkscape:export-ydpi="77.710739"><g
         id="g28"
         clip-path="url(#clipPath32)"><g
           id="g34"
           transform="translate(359.527,414.9673)"><path
             d="m 0,0 c -6.162,1.451 -12.355,2.827 -18.756,3.762 -0.24,0.037 -0.509,0.052 -0.748,0.09 -9.094,-6.716 -17.47,-14.128 -25.008,-22.092 8.346,1.226 16.872,2.004 25.576,2.318 30.392,1.114 59.291,-3.867 85.375,-13.357 C 47.624,-16.318 24.919,-6.102 0,0"
             style="fill:#004b8d;fill-opacity:1;fill-rule:nonzero;stroke:none"
             id="path36"
             inkscape:connector-curvature="0" /></g><g
           id="g38"
           transform="translate(345.9762,348.0564)"><path
             d="M 0,0 C 34.4,16.236 70.418,23.094 104.4,21.598 75.144,34.521 41.567,41.32 6.072,40.033 -11.427,39.39 -28.329,36.817 -44.334,32.584 -52.321,21.86 -58.917,10.328 -63.928,-1.809 c 7.718,-7.592 16.139,-14.74 25.203,-21.33 C -26.908,-14.396 -13.971,-6.603 0,0"
             style="fill:#f68b1f;fill-opacity:1;fill-rule:nonzero;stroke:none"
             id="path40"
             inkscape:connector-curvature="0" /></g><g
           id="g42"
           transform="translate(301.6426,380.6404)"><path
             d="m 0,0 c -13.311,-3.515 -26.025,-8.181 -37.991,-13.865 12.115,-15.436 26.714,-29.593 43.586,-41.858 h 0.014 c -9.064,6.597 -17.485,13.738 -25.204,21.329 C -14.584,-22.263 -7.987,-10.731 0,0"
             style="fill:#fcbb7e;fill-opacity:1;fill-rule:nonzero;stroke:none"
             id="path44"
             inkscape:connector-curvature="0" /></g><g
           id="g46"
           transform="translate(307.2671,324.9102)"><path
             d="M 0,0 C -9.064,6.581 -17.501,13.746 -25.219,21.337 -32.383,4.001 -36.286,-14.568 -36.346,-33.834 -25.847,-21.501 -13.671,-10.134 0,0"
             style="fill:#fcbb7e;fill-opacity:1;fill-rule:nonzero;stroke:none"
             id="path48"
             inkscape:connector-curvature="0" /></g><g
           id="g50"
           transform="translate(478.3464,220.1129)"><path
             d="m 0,0 c -0.419,-0.009 -0.837,-0.023 -1.27,-0.023 -17.456,0 -30.11,11.173 -30.11,26.564 v 0.344 c 0,14.725 12.684,26.257 28.867,26.257 0.868,0 1.706,-0.029 2.513,-0.075 v 17.688 c -0.748,0.03 -1.526,0.03 -2.303,0.03 -31.709,0 -55.64,-19.004 -55.64,-44.244 v -0.322 c 0,-24.62 24.26,-43.907 55.236,-43.907 0.942,0 1.809,0.023 2.707,0.046 z"
             style="fill:#004b8d;fill-opacity:1;fill-rule:nonzero;stroke:none"
             id="path52"
             inkscape:connector-curvature="0" /></g><g
           id="g54"
           transform="translate(157.7625,257.1774)"><path
             d="m 0,0 c -18.712,3.992 -21.344,5.907 -21.344,11.822 v 0.269 c 0,4.361 4.801,7.831 13.917,7.831 4.651,0 10.725,-1.265 14.988,-2.843 v 18.863 c -3.964,0.687 -10.051,1.473 -14.673,1.473 -22.122,0 -37.88,-10.806 -37.88,-27.148 V 10.02 c 0,-17.866 14.052,-22.877 35.868,-27.506 18.091,-3.859 19.796,-6.431 19.796,-11.449 v -0.255 c 0,-5.272 -5.879,-8.481 -15.623,-8.481 -12.37,0 -20.567,4.24 -30.304,10.928 l -14.082,-14.016 c 12.991,-9.639 27.53,-14.404 43.922,-14.404 23.356,0 39.749,10.029 39.749,27.902 v 0.256 C 34.334,-11.315 21.949,-4.758 0,0"
             style="fill:#004b8d;fill-opacity:1;fill-rule:nonzero;stroke:none"
             id="path56"
             inkscape:connector-curvature="0" /></g><g
           id="g58"
           transform="translate(230.3862,281.7061)"><path
             d="m 0,0 c -24.289,0 -41.252,-17.35 -41.252,-38.403 v -0.269 c 0,-22.576 18.518,-38.132 43.585,-38.132 0.719,0 3.052,0.096 3.77,0.112 v 16.819 c -0.598,-0.023 -2.842,-0.135 -3.469,-0.135 -10.59,0 -18.055,4.943 -20.402,14.449 h 57.569 c 0.135,1.937 0.299,3.171 0.299,5.242 v 0.262 C 40.1,-19.13 27.851,0 0,0 m -18.067,-32.494 c 1.868,9.498 8.256,15.705 18.067,15.705 9.947,0 16.184,-6.335 17.59,-15.705 z"
             style="fill:#004b8d;fill-opacity:1;fill-rule:nonzero;stroke:none"
             id="path60"
             inkscape:connector-curvature="0" /></g><g
           id="g62"
           transform="translate(345.5561,245.3235)"><path
             d="M 0,0 C 0,19.96 -12.204,35.538 -38.02,35.538 -63.867,35.538 -76.072,19.96 -76.072,0 v -39.062 h 23.918 V 1.442 c 0.433,7.39 3.334,16.116 14.134,16.116 10.768,0 13.91,-8.726 14.329,-16.116 V -39.062 H 0 Z"
             style="fill:#004b8d;fill-opacity:1;fill-rule:nonzero;stroke:none"
             id="path64"
             inkscape:connector-curvature="0" /></g><g
           id="g66"
           transform="translate(398.9799,232.5155)"><path
             d="M 0,0 C -2.058,-10.786 -13.191,-12.402 -15.716,-12.535 -33.721,-13.484 -34.361,-1.172 -28.309,2.579 -20.17,7.623 0.072,4.787 0.072,4.787 0.072,4.057 0.265,2.22 0,0 m -14.534,48.771 c -1.047,0 -4.667,-0.014 -5.655,-0.044 V 30.875 c 4.608,-0.044 10.919,-0.821 13.731,-2.303 4.131,-2.175 6.275,-5.84 6.377,-10.804 -5.635,0.661 -12.023,1.111 -17.561,1.253 -22.591,0.58 -33.761,-6.89 -36.004,-18.846 -0.044,-0.223 -0.084,-0.45 -0.122,-0.678 -0.012,-0.077 -0.024,-0.154 -0.036,-0.232 -0.176,-1.142 -0.277,-2.341 -0.277,-3.613 v -0.27 c 0,-14.613 12.922,-22.592 28.629,-22.592 11.531,0 19.473,3.731 25.216,9.37 v -8.503 H 22.648 V 16.98 c 0,19.969 -11.366,31.791 -37.182,31.791"
             style="fill:#004b8d;fill-opacity:1;fill-rule:nonzero;stroke:none"
             id="path68"
             inkscape:connector-curvature="0" /></g></g></g></g></svg>